<svg xmlns="http://www.w3.org/2000/svg" enable-background="new 0 0 300 225" viewBox="0 0 300 225"><path fill="#e8f0ef" d="M209.25,61.9c-0.2-0.04-0.4-0.08-0.59-0.12c-12.98-2.44-24.9-8.92-33.81-18.67
			c-11.08-12.12-26.1-20.83-43.56-23.91c-41.79-7.38-81.47,20.09-89.3,61.8c-7.87,41.92,19.73,82.28,61.64,90.16
			c11.46,2.15,22.8,1.65,33.4-1.07c16.45-4.22,33.61-4.45,50.23-0.95c0.39,0.08,0.79,0.16,1.19,0.24
			c29.44,5.53,57.79-13.62,63.74-42.88C258.25,96.67,239.11,67.85,209.25,61.9z" class="colore9e8f0 svgShape"/><ellipse cx="150" cy="204" fill="#e8f0ef" class="colore9e8f0 svgShape" rx="120.16" ry="2.85"/><path fill="#c8e7e3" d="M40.76,99.6l108.82-0.02v11.1H42.19c0.19,0.89,0.4,2.09,0.73,3.22h106.66v11.07l-102.99,0
			c0.47,1.23,0.89,2.15,1.43,3.21h101.56v12.67l-94.02,0.01c12.26,17.42,31.07,27.62,45.97,30.33c27.08,4.93,36.66-2.64,61.42-4.48
			v-25.87h-8.54V90.41h-4.82v5.95L40.64,96.38C40.64,97.02,40.6,98.31,40.76,99.6z" class="colorc8d0e7 svgShape"/><path fill="#3e2e46" d="M207.68,44.46c0,0,8.18,5.63,10.27,11.07c2.09,5.44,6.79,6.75,6.79,6.75l3.87-2.72c0,0-0.54-1.52-2.37-2.93
				c-1.49-1.15-1.46-1.32-1.46-1.32s2.43,0.47,3.16,1.24c1.12,1.19,1.29,2.43,1.29,2.43l1.18-0.95c2.3-1.85,1.98-5.06-0.1-7.14
				c-2.09-2.09-5.42-3.6-8.29-3.88c-5.93-0.58-3.54-6.76-9.21-9.3c-3.84-1.72-5.14,2.9-5.14,2.9L207.68,44.46z" class="color2e3a46 svgShape"/><path fill="none" stroke="#3e2e46" stroke-miterlimit="10" stroke-width=".1" d="M210.26,45.84c4.47,5.46,5.96,7.62,8.05,12.47c1.15,2.68,3.11,3.65,4.55,4.66" class="colorStroke2e3a46 svgStroke"/><circle cx="204.59" cy="44.49" r="6.9" fill="#3e2e46" class="color2e3a46 svgShape"/><path fill="#f7d49f" d="M197.3,42.21c4.51-8,10.3-1.07,10.3-1.07l0.08,4.11c0,0,2.26-0.95,2.55,0.98
							c0.31,2.09-1.94,2.62-1.94,2.62l-0.02,9.47l-6.93-0.1l0.02-5.62c0,0-1.7-0.01-2.56-1.11c-0.79-1-1.29-4.66-1.43-8.04
							C197.35,43.08,197.3,42.21,197.3,42.21z" class="colorf7ac9f svgShape"/><path fill="#d8a353" d="M204.83,52.02c0,0-1.25,0.45-2.36,0.51c-1.11,0.06-1.11,0.06-1.11,0.06l0,0l-0.01,2.3
							c0,0,0.62-0.03,2.11-1.35C204.58,52.56,204.83,52.02,204.83,52.02z" class="colorf2796e svgShape"/><path fill="none" stroke="#321952" stroke-linecap="round" stroke-linejoin="round" stroke-miterlimit="10" stroke-width=".1" d="M202.78,48.33L202.78,48.33c-0.2,0.62-0.82,1.02-1.47,0.95l-0.21-0.02" class="colorStroke192752 svgStroke"/><ellipse cx="203.99" cy="47.03" fill="#f2c580" class="colorf2808a svgShape" rx="1.26" ry=".78" transform="rotate(-3.199 204.147 47.06)"/><ellipse cx="198.88" cy="47.31" fill="#f2c580" class="colorf2808a svgShape" rx="1.06" ry=".78" transform="rotate(-3.199 199.035 47.346)"/><path fill="none" stroke="#321952" stroke-linecap="round" stroke-linejoin="round" stroke-miterlimit="10" stroke-width=".1" d="M200.88,45.35l-0.46,1.41c-0.1,0.29,0.11,0.6,0.42,0.61l0.5,0.03" class="colorStroke192752 svgStroke"/><path fill="none" stroke="#321952" stroke-linecap="round" stroke-linejoin="round" stroke-miterlimit="10" stroke-width=".1" d="M202.61,43.37c0,0,0.42-0.2,1.08-0.02s0.93,0.63,0.93,0.63" class="colorStroke192752 svgStroke"/><path fill="none" stroke="#321952" stroke-linecap="round" stroke-linejoin="round" stroke-miterlimit="10" stroke-width=".1" d="M198.45,43.73c0,0,0.25-0.38,0.88-0.56c0.63-0.18,1.08,0.06,1.08,0.06" class="colorStroke192752 svgStroke"/><ellipse cx="202.54" cy="45.08" fill="#2a2a2a" class="color2a2a2a svgShape" rx=".3" ry=".56" transform="rotate(-1.621 202.249 44.955)"/><ellipse cx="199.18" cy="45.18" fill="#2a2a2a" class="color2a2a2a svgShape" rx=".3" ry=".56" transform="rotate(-1.621 198.887 45.05)"/><path fill="#3e2e46" d="M197.16,42.61l3.31-0.08l0.23-1.04l0.28,1.03l4.19-0.1l0.34-2.03l0.89,1.96l2.63,0.44
				c0,0,0.13-3.94-5.66-4.95C197.69,36.84,197.16,42.61,197.16,42.61z" class="color2e3a46 svgShape"/><path fill="#f7d49f" d="M182.93,63.21l-13.94,2.86L143.92,50.2l4.44,12.32l15.73,14.12c2.35,2.57,5.93,3.62,9.29,2.72l17.11-4.58
					L182.93,63.21z" class="colorf7ac9f svgShape"/><path fill="#eeaa43" d="M142.44,59.87c0,0-4.8,3.26-6.94-0.96c-2.14-4.21,3.86-10.64,7.52-10.04c3.66,0.6,8.32,5,8.32,5
						l-3.84,7.81c0,0-1.67,0.55-3.22,0.13S142.44,59.87,142.44,59.87z" class="coloree435a svgShape"/><path fill="#b17d2f" d="M146.84,58.02c-1.47-0.77-3.28-0.26-4.13,1.16l-0.37,0.63l0.21,0.12l0.37-0.63
							c0.78-1.31,2.46-1.78,3.81-1.07L146.84,58.02z" class="colorb12f41 svgShape"/><path fill="#d2953a" d="M149.12,65.51l-3.11-1.69c-0.26-0.14-0.35-0.46-0.21-0.71l5.8-10.68c0.14-0.26,0.46-0.35,0.71-0.21
						l3.11,1.69c0.26,0.14,0.35,0.46,0.21,0.71l-5.8,10.68C149.7,65.55,149.38,65.65,149.12,65.51z" class="colord23a4f svgShape"/><path fill="#f7d49f" d="M203.45,76.58l-8.43,11.46l-29.24,5.02l11.55,6.17l21.14-0.06c3.46,0.34,6.83-1.28,8.72-4.21l9.63-14.86
					L203.45,76.58z" class="colorf7ac9f svgShape"/><path fill="#eeaa43" d="M166.83,92.47c0,0-4.1-4.1-7-0.37c-2.9,3.74,1.79,11.18,5.5,11.28s9.12-3.34,9.12-3.34l-2.3-8.39
						c0,0-1.53-0.86-3.14-0.73C167.4,91.04,166.83,92.47,166.83,92.47z" class="coloree435a svgShape"/><path fill="#b17d2f" d="M170.8,95.11c-1.59,0.48-3.27-0.36-3.84-1.92l-0.25-0.69l0.23-0.08l0.25,0.69
							c0.52,1.44,2.08,2.22,3.54,1.77L170.8,95.11z" class="colorb12f41 svgShape"/><path fill="#d2953a" d="M174.45,88.18l-3.38,1.07c-0.28,0.09-0.43,0.38-0.34,0.66l3.68,11.58c0.09,0.28,0.38,0.43,0.66,0.34
						l3.38-1.07c0.28-0.09,0.43-0.38,0.34-0.66l-3.68-11.58C175.03,88.25,174.73,88.1,174.45,88.18z" class="colord23a4f svgShape"/><g class="color000000 svgShape"><path fill="#f7d49f" d="M204.63,133.1c0,0,4.36,14.46,9.68,22.57c4.03,6.13,22.88,20.45,22.88,20.45l8.92-8.16l-4.67-5.23
						c-9.14-9.95-14.69-23.42-18.22-36.46L204.63,133.1z" class="colorf7ac9f svgShape"/><polygon fill="#8a47a9" points="173.94 177.54 176.08 191.8 187.59 191.8 186.56 177.54" class="color475ca9 svgShape"/><path fill="#f7d49f" d="M173.94,177.54l-5.73-38.16c-0.48-3.21,0.41-6.47,2.46-8.98l14.17-17.39l13.83,13.43l-11.77,16.52
						l-0.34,34.58L173.94,177.54z" class="colorf7ac9f svgShape"/><polygon fill="#d2953a" points="214.83 96.37 224.1 125.88 202.69 135.13 193.87 111.18" class="colord23a4f svgShape"/><path fill="#eeaa43" d="M213.43,116.32c-4.4,9.21-16.28,17.48-16.28,17.48l-20.28-17.08l15.61-16.68v-5.47h23.21
								C215.7,94.57,217.84,107.11,213.43,116.32z" class="coloree435a svgShape"/><polygon fill="#f0b966" points="224.1 125.88 225.17 128.92 203.71 137.67 202.69 135.13" class="colorf0667e svgShape"/><polygon fill="#f2c47f" points="197.16 133.8 176.88 116.72 175.16 118.73 195.35 135.8" class="colorf27f99 svgShape"/><path fill="#f2c47f" d="M186.89,127.01l-1.46-1.51l10.23-9.89c3.8-3.67,6.22-8.59,6.81-13.84l0.82-7.32l2.09,0.23l-0.82,7.32
								c-0.64,5.74-3.28,11.11-7.44,15.12L186.89,127.01z" class="colorf27f99 svgShape"/><polygon fill="#ad59d4" points="186.8 180.84 174.43 180.84 174.64 182.2 186.9 182.2" class="color6b80bf svgShape"/><path fill="#eeaa43" d="M175.22,188.6c0.6,3.8,1.18,8.68,0.11,9.32c-1.51,0.91-7.81,1.44-8.68,3.23
							c-0.87,1.79-0.34,3.35-0.34,3.35l21.95-1.26l-0.67-14.64H175.22z" class="coloree435a svgShape"/><polygon fill="#8a47a9" points="166.31 205.74 188.26 204.75 188.26 203.24 166.31 204.5" class="color475ca9 svgShape"/><path fill="#8a47a9" d="M178.39,195.49l-3.19,0.1c-0.04,0-0.08-0.03-0.08-0.07l-0.01-0.39c0-0.04,0.03-0.08,0.07-0.08l3.19-0.1
								c0.04,0,0.08,0.03,0.08,0.07l0.01,0.39C178.46,195.46,178.43,195.49,178.39,195.49z" class="color475ca9 svgShape"/><path fill="#8a47a9" d="M176.96,197.72l-3.19,0.1c-0.04,0-0.08-0.03-0.08-0.07l-0.01-0.39c0-0.04,0.03-0.08,0.07-0.08l3.19-0.1
								c0.04,0,0.08,0.03,0.08,0.07l0.01,0.39C177.03,197.68,177,197.72,176.96,197.72z" class="color475ca9 svgShape"/><path fill="#8a47a9" d="M174,199.08l-3.19,0.1c-0.04,0-0.08-0.03-0.08-0.07l-0.01-0.39c0-0.04,0.03-0.08,0.07-0.08l3.19-0.1
								c0.04,0,0.08,0.03,0.08,0.07l0.01,0.39C174.07,199.04,174.04,199.08,174,199.08z" class="color475ca9 svgShape"/><path fill="#8a47a9" d="M177.92,192.9l-3.19,0.1c-0.04,0-0.08-0.03-0.08-0.07l-0.01-0.39c0-0.04,0.03-0.08,0.07-0.08l3.19-0.1
							c0.04,0,0.08,0.03,0.08,0.07l0.01,0.39C177.99,192.86,177.96,192.89,177.92,192.9z" class="color475ca9 svgShape"/><g class="color000000 svgShape"><polygon fill="#8a47a9" points="237.04 175.99 247.66 184.88 255.93 177.55 246.11 167.95" class="color475ca9 svgShape"/><polygon fill="#ad59d4" points="248.38 170.18 239.5 178.04 240.51 178.89 249.32 171.09" class="color6b80bf svgShape"/><path fill="#eeaa43" d="M245,183.12c2.85,2.35,6.37,5.49,6.01,6.63c-0.51,1.61-4.69,6-4.18,7.85c0.51,1.85,1.89,2.62,1.89,2.62
								l14.97-14.88l-9.97-9.95L245,183.12z" class="coloree435a svgShape"/><polygon fill="#8a47a9" points="249.51 201.11 264.65 186.43 263.69 185.34 248.72 200.22" class="color475ca9 svgShape"/><path fill="#8a47a9" d="M251.66,186.06l-2.23,2.1c-0.03,0.03-0.08,0.03-0.11,0l-0.25-0.27c-0.03-0.03-0.03-0.08,0-0.11
									l2.23-2.1c0.03-0.03,0.08-0.03,0.11,0l0.25,0.27C251.69,185.99,251.69,186.03,251.66,186.06z" class="color475ca9 svgShape"/><path fill="#8a47a9" d="M252.05,188.57l-2.23,2.1c-0.03,0.03-0.08,0.03-0.11,0l-0.25-0.27c-0.03-0.03-0.03-0.08,0-0.11
									l2.23-2.1c0.03-0.03,0.08-0.03,0.11,0l0.25,0.27C252.09,188.5,252.08,188.54,252.05,188.57z" class="color475ca9 svgShape"/><path fill="#8a47a9" d="M250.79,191.43l-2.23,2.1c-0.03,0.03-0.08,0.03-0.11,0l-0.25-0.27c-0.03-0.03-0.03-0.08,0-0.11
									l2.23-2.1c0.03-0.03,0.08-0.03,0.11,0l0.25,0.27C250.82,191.36,250.82,191.41,250.79,191.43z" class="color475ca9 svgShape"/><path fill="#8a47a9" d="M249.67,184.49l-2.23,2.1c-0.03,0.03-0.08,0.03-0.11,0l-0.25-0.27c-0.03-0.03-0.03-0.08,0-0.11
								l2.23-2.1c0.03-0.03,0.08-0.03,0.11,0l0.25,0.27C249.71,184.42,249.7,184.46,249.67,184.49z" class="color475ca9 svgShape"/></g><g class="color000000 svgShape"><path fill="#5fe4d4" d="M191.96,76.83l-1.38,19.44l28.06,1.07c0,0-1.15-36.56-10.1-41.41c-8.96-4.84-31.66,6.83-31.66,6.83
						l6.49,17.03L191.96,76.83z" class="color48b0e3 svgShape"/><polygon fill="#19a998" points="191.96 76.83 200.02 73.42 191.67 80.93" class="color197aa9 svgShape"/></g></g><g class="color000000 svgShape"><path fill="#3e2e46" d="M69.22,29.51c-0.45,4.06,2.48,7.72,6.54,8.17s6.63-3.21,7.71-7.15c1.29-4.74-2.01-7.11-6.07-7.57
				S69.67,25.45,69.22,29.51z" class="color2e3a46 svgShape"/><path fill="#f7d49f" d="M72.31,30.41l0.03-0.39c0.14-2.13,2.03-3.71,4.15-3.47c1.91,0.22,4.08,0.47,5.42,0.64
								c0.73,0.09,1.26,0.73,1.21,1.46l0,0.01c-0.2,3.53-0.77,7.35-1.61,8.39c-0.92,1.13-2.7,1.12-2.7,1.12l-0.05,4.36l-8.52,3.95
								l1.37-12.33c0,0-2.35-0.59-1.99-2.77C69.96,29.38,72.31,30.41,72.31,30.41z" class="colorf7ac9f svgShape"/><path fill="#d8a353" d="M75.2,37.54c0,0,1.3,0.49,2.46,0.57s1.16,0.08,1.16,0.08l0,0l-0.03,2.41c0,0-0.65-0.04-2.19-1.44
								C75.45,38.11,75.2,37.54,75.2,37.54z" class="colorf2796e svgShape"/><path fill="none" stroke="#321952" stroke-linecap="round" stroke-linejoin="round" stroke-miterlimit="10" stroke-width=".1" d="M79.8,30.53l0.48,1.53c0.1,0.32-0.13,0.64-0.46,0.66l-0.54,0.02" class="colorStroke192752 svgStroke"/><path fill="none" stroke="#321952" stroke-linecap="round" stroke-linejoin="round" stroke-miterlimit="10" stroke-width=".1" d="M77.71,28.76c0,0-0.43-0.22-1.13-0.04c-0.69,0.18-0.98,0.65-0.98,0.65" class="colorStroke192752 svgStroke"/><ellipse cx="77.42" cy="30.39" fill="#8526fe" class="color192752 svgShape" rx=".54" ry=".35" transform="rotate(-86.015 77.418 30.384)"/><path fill="none" stroke="#321952" stroke-linecap="round" stroke-linejoin="round" stroke-miterlimit="10" stroke-width=".1" d="M81.98,29.45c0,0-0.26-0.41-0.94-0.62c-0.68-0.21-1.17,0.05-1.17,0.05" class="colorStroke192752 svgStroke"/><ellipse cx="81.27" cy="30.67" fill="#8526fe" class="color192752 svgShape" rx=".54" ry=".35" transform="rotate(-82.438 81.273 30.672)"/><path fill="none" stroke="#321952" stroke-linecap="round" stroke-linejoin="round" stroke-miterlimit="10" stroke-width=".1" d="M77.42,34.03c0,0,0.17,0.45,0.8,0.8c0.63,0.34,1.16,0.19,1.16,0.19" class="colorStroke192752 svgStroke"/><path fill="#f7d49f" d="M79.77,47.11l8.12,10.99l13.04-10.66c0,0,0.1-1.43,0.39-2.43c0.29-1,0.92-2.12,2.24-1.66
					c0.83,0.28,0.42,1.84,0.42,1.84s3.34-3.06,4.12-2.29c0.79,0.78-1.82,3.11-2.23,3.46c0.34-0.28,3.36-1.98,3.94-1.15
					c0.71,1.01-2.15,2.72-2.47,2.98c0.19-0.13,2.2-0.07,2.13,0.52c-0.1,0.8-1.04,1.32-2.57,2.21c-1.01,0.59-2.72,1.65-2.72,1.65
					S90.4,72.72,85.61,72.95c-3.25,0.16-11.13-10.44-15.95-17.42c-2.24-3.24-1.38-7.69,1.9-9.87l0,0
					C74.24,43.88,77.85,44.52,79.77,47.11z" class="colorf7ac9f svgShape"/><path fill="#9e7332" d="M104.64,34.88c-4.89,0.41-8.77,6.53-8.77,14.03s3.88,13.63,8.77,14.03l2.66,0.02l-0.55-28.09H104.64z" class="color9e3234 svgShape"/><ellipse cx="107.2" cy="48.91" fill="#efb051" class="coloref5154 svgShape" rx="9.29" ry="14.06"/><ellipse cx="107.84" cy="48.64" fill="#f90" class="colorffd900 svgShape" rx="6.37" ry="9.63"/><path fill="#9e7332" d="M108.74,74.27c4.68,0.85,9.87-3.9,11.76-10.93c1.89-7.02-0.2-13.74-4.67-15.36l-2.48-0.69l-6.58,26.45
					L108.74,74.27z" class="color9e3234 svgShape"/><ellipse cx="109.88" cy="60.48" fill="#efb051" class="coloref5154 svgShape" rx="13.63" ry="9.01" transform="rotate(-74.912 109.89 60.48)"/><path fill="#f7d49f" d="M76.45,129.42l12.19,16.34l-3.84,41.06l11.26,1.07l10.13-38.48c1.16-4.69,0.46-9.64-1.96-13.82
					l-10.54-18.22L76.45,129.42z" class="colorf7ac9f svgShape"/><polygon fill="#f7d49f" points="57.73 130.12 52.58 188.61 64.68 186.9 77.56 132.3" class="colorf7ac9f svgShape"/><path fill="#5fe4d4" d="M88.45,86.01l-1.85,17.37l10.35,16.26l-17.37,14.41l-0.74,1.85l0,0H56.13c0,0-0.94-25.87,1.65-35.1
						s7.76-18.11,7.76-18.11L88.45,86.01z" class="color48b0e3 svgShape"/><polygon fill="#19a998" points="61.51 114.98 79.58 134.04 78.85 135.89" class="color197aa9 svgShape"/><line x1="80.71" x2="86.61" y1="96.38" y2="103.37" fill="none" stroke="#19a998" stroke-miterlimit="10" stroke-width=".1" class="colorStroke197aa9 svgStroke"/><path fill="#5c3f6a" d="M63.56,198.17c-1.44-0.98,0.89-10.25,1.48-12.87h0c-1.17-0.1-3.4-0.3-3.77,2.11l-0.01,0.13l0,0
						c0.13-1.41-0.92-2.65-2.33-2.78l-6.07-0.77l-3.11,18.57l22.26,2.55c0,0,0.61-1.5-0.14-3.3
						C71.13,200.01,64.99,199.14,63.56,198.17z" class="color3f4d6a svgShape"/><polygon fill="#efb051" points="71.96 206.33 49.77 204.07 49.76 202.56 72.02 205.12" class="coloref5154 svgShape"/><path fill="#efb051" d="M60.71,195.63l3.12,0.28c0.04,0,0.08-0.03,0.08-0.07l0.03-0.38c0-0.04-0.03-0.08-0.07-0.08l-3.12-0.28
							c-0.04,0-0.08,0.03-0.08,0.07l-0.03,0.38C60.64,195.59,60.67,195.63,60.71,195.63z" class="coloref5154 svgShape"/><path fill="#efb051" d="M61.98,197.89l3.12,0.28c0.04,0,0.08-0.03,0.08-0.07l0.03-0.38c0-0.04-0.03-0.08-0.07-0.08l-3.12-0.28
							c-0.04,0-0.08,0.03-0.08,0.07l-0.03,0.38C61.91,197.85,61.94,197.89,61.98,197.89z" class="coloref5154 svgShape"/><path fill="#efb051" d="M64.81,199.38l3.12,0.28c0.04,0,0.08-0.03,0.08-0.07l0.03-0.38c0-0.04-0.03-0.08-0.07-0.08l-3.12-0.28
							c-0.04,0-0.08,0.03-0.08,0.07l-0.03,0.38C64.73,199.34,64.76,199.38,64.81,199.38z" class="coloref5154 svgShape"/><path fill="#efb051" d="M61.31,193.11l3.12,0.28c0.04,0,0.08-0.03,0.08-0.07l0.03-0.38c0-0.04-0.03-0.08-0.07-0.08l-3.12-0.28
						c-0.04,0-0.08,0.03-0.08,0.07l-0.03,0.38C61.24,193.07,61.27,193.11,61.31,193.11z" class="coloref5154 svgShape"/><g class="color000000 svgShape"><path fill="#5c3f6a" d="M94.46,198.08c-1.34-1.11,1.84-10.12,2.67-12.67l0,0c-1.16-0.21-3.36-0.62-3.95,1.75l-0.02,0.13v0
						c0.26-1.39-0.67-2.73-2.06-2.98l-5.97-1.33l-4.83,18.2l21.93,4.62c0,0,0.75-1.43,0.16-3.3
						C101.81,200.62,95.79,199.18,94.46,198.08z" class="color3f4d6a svgShape"/><polygon fill="#efb051" points="102.05 206.99 80.17 202.66 80.31 201.16 102.23 205.78" class="coloref5154 svgShape"/><path fill="#efb051" d="M91.85,195.28l3.08,0.57c0.04,0.01,0.08-0.02,0.09-0.06l0.07-0.38c0.01-0.04-0.02-0.08-0.06-0.09
							l-3.08-0.57c-0.04-0.01-0.08,0.02-0.09,0.06l-0.07,0.38C91.78,195.24,91.81,195.28,91.85,195.28z" class="coloref5154 svgShape"/><path fill="#efb051" d="M92.91,197.65l3.08,0.57c0.04,0.01,0.08-0.02,0.09-0.06l0.07-0.38c0.01-0.04-0.02-0.08-0.06-0.09
							L93,197.13c-0.04-0.01-0.08,0.02-0.09,0.06l-0.07,0.38C92.84,197.61,92.87,197.64,92.91,197.65z" class="coloref5154 svgShape"/><path fill="#efb051" d="M95.58,199.4l3.08,0.57c0.04,0.01,0.08-0.02,0.09-0.06l0.07-0.38c0.01-0.04-0.02-0.08-0.06-0.09
							l-3.08-0.57c-0.04-0.01-0.08,0.02-0.09,0.06l-0.07,0.38C95.51,199.36,95.54,199.4,95.58,199.4z" class="coloref5154 svgShape"/><path fill="#efb051" d="M92.68,192.83l3.08,0.57c0.04,0.01,0.08-0.02,0.09-0.06l0.07-0.38c0.01-0.04-0.02-0.08-0.06-0.09
						l-3.08-0.57c-0.04-0.01-0.08,0.02-0.09,0.06l-0.07,0.38C92.62,192.79,92.64,192.83,92.68,192.83z" class="coloref5154 svgShape"/></g><g class="color000000 svgShape"><path fill="#5e2777" d="M61.29,75.49c-0.14,3.58-0.62,15.53-0.62,15.53l28.5,0.66c0,0,1.8-45.31-11.11-50.32
						C62.47,35.3,61.68,65.52,61.29,75.49z" class="color274477 svgShape"/></g><path fill="#f7d49f" d="M81.42,49.48l5.53,14.13l17.06-7.67c0,0,0.52-1.5,1.12-2.49c0.6-0.99,1.6-2,2.89-1.13
				c0.8,0.54-0.08,2.09-0.08,2.09s4.46-2.32,5.08-1.27c0.62,1.06-2.85,2.8-3.39,3.06c0.45-0.2,4.17-1.15,4.56-0.1
				c0.47,1.29-3.09,2.3-3.5,2.48c0.24-0.08,2.38,0.56,2.13,1.18c-0.34,0.83-1.5,1.11-3.4,1.63c-1.25,0.34-3.39,0.98-3.39,0.98
				s-20.59,17.64-25.79,16.5c-3.53-0.77-8.92-14.41-12.07-23.28c-1.47-4.12,0.74-8.65,4.89-10.03l0,0
				C76.44,44.43,80.12,46.15,81.42,49.48z" class="colorf7ac9f svgShape"/><path fill="#9e7332" d="M100.08,54.38l15.5,4.18c0.24,0.07,0.39,0.32,0.32,0.56l-0.96,3.56c-0.07,0.24-0.32,0.39-0.56,0.32
				l-15.5-4.18c-0.24-0.07-0.39-0.32-0.32-0.56l0.96-3.56C99.58,54.46,99.83,54.32,100.08,54.38z" class="color9e3234 svgShape"/><line x1="98.36" x2="87.84" y1="58.48" y2="63.21" fill="none" stroke="#bb9965" stroke-miterlimit="10" stroke-width=".1" class="colorStrokebb6e65 svgStroke"/></g><g class="color000000 svgShape"><line x1="158.19" x2="134.35" y1="84.75" y2="84.75" fill="none" stroke="#fff" stroke-miterlimit="10" stroke-width=".1" class="colorStrokeffffff svgStroke"/><line x1="145.46" x2="126.48" y1="81.71" y2="81.71" fill="none" stroke="#fff" stroke-miterlimit="10" stroke-width=".1" class="colorStrokeffffff svgStroke"/><line x1="156.51" x2="133.45" y1="77.96" y2="77.96" fill="none" stroke="#fff" stroke-miterlimit="10" stroke-width=".1" class="colorStrokeffffff svgStroke"/></g><g class="color000000 svgShape"><line x1="168.61" x2="154.05" y1="50.79" y2="50.79" fill="none" stroke="#fff" stroke-miterlimit="10" stroke-width=".1" class="colorStrokeffffff svgStroke"/><line x1="160.83" x2="149.24" y1="47.76" y2="47.76" fill="none" stroke="#fff" stroke-miterlimit="10" stroke-width=".1" class="colorStrokeffffff svgStroke"/><line x1="167.59" x2="153.5" y1="44.01" y2="44.01" fill="none" stroke="#fff" stroke-miterlimit="10" stroke-width=".1" class="colorStrokeffffff svgStroke"/></g></svg>